<svg width="297" height="289" viewBox="0 0 297 289" fill="none" xmlns="http://www.w3.org/2000/svg">
<path d="M296.4 270.193C296.4 280.382 288.064 288.718 277.875 288.718H18.525C8.33625 288.718 0 280.382 0 270.193V159.043C0 148.855 5.90479 134.613 13.1064 127.411L135.093 5.40115C142.295 -1.80038 154.082 -1.80038 161.284 5.40115L283.293 127.411C290.495 134.613 296.4 148.855 296.4 159.043V270.193Z" fill="#2BC1F3"/>
<path d="M197.593 96.8691H98.784C94.6863 96.8691 91.374 100.18 91.374 104.279V288.719H106.194V111.689H190.183V126.509H128.424C124.326 126.509 121.014 129.82 121.014 133.919V163.559C121.014 167.658 124.326 170.969 128.424 170.969H190.183V185.789H128.424C124.326 185.789 121.014 189.1 121.014 193.199V222.839C121.014 226.938 124.326 230.249 128.424 230.249H190.183V245.069H128.424C124.326 245.069 121.014 248.38 121.014 252.479C121.014 256.578 124.326 259.889 128.424 259.889H197.593C201.69 259.889 205.003 256.578 205.003 252.479V222.839C205.003 218.74 201.69 215.429 197.593 215.429H135.834V200.609H197.593C201.69 200.609 205.003 197.298 205.003 193.199V163.559C205.003 159.46 201.69 156.149 197.593 156.149H135.834V141.329H197.593C201.69 141.329 205.003 138.018 205.003 133.919V104.279C205.003 100.18 201.69 96.8691 197.593 96.8691Z" fill="#F2F4F9"/>
</svg>
